
<svg width="137px" height="145px" viewBox="0 0 137 145" version="1.1" xmlns="http://www.w3.org/2000/svg" xmlns:xlink="http://www.w3.org/1999/xlink">
  <!-- Generator: Sketch 47.1 (45422) - http://www.bohemiancoding.com/sketch -->
  <desc>Created with Sketch.</desc>
  <defs></defs>
  <g id="Page-1" stroke="none" stroke-width="1" fill="none" fill-rule="evenodd">
    <path d="M2.69921875,57.015625 C45.8808594,19.3216146 67.7347005,0.518554687 68.2607422,0.606445312 C68.7867839,0.694335937 90.3854167,19.4973958 133.056641,57.015625 L111.05957,71.5107422 L111.05957,41.2919922 L25.5097656,41.2919922 L25.5097656,71.5107422 L2.69921875,57.015625 Z M0.557617187,63.8623047 C33.9052734,87.3238932 50.8310547,99.0546875 51.3349609,99.0546875 C51.8388672,99.0546875 62.7145182,99.0546875 83.9619141,99.0546875 L136.43457,63.8623047 L136.43457,144.240234 L0.557617187,144.240234 L0.557617187,63.8623047 Z M66.9316406,65.0146484 C71.2923177,59.5335286 75.7773438,57.1285807 80.3867188,57.7998047 C87.3007813,58.8066406 91.2451172,64.84375 90.6123047,69.4238281 C89.9794922,74.0039062 90.4267578,74.0048828 87.0712891,77.859375 C83.7158203,81.7138672 70.5498047,93.4707031 68.8027344,93.5517578 C67.0556641,93.6328125 50.0722656,84.1494141 46.2119141,72.7333984 C42.3515625,61.3173828 54.8144531,57.7998047 55.9277344,57.7998047 C56.263689,57.7998047 58.9833984,57.0654297 62.4384766,58.9160156 C64.741862,60.1497396 66.2395833,62.1826172 66.9316406,65.0146484 Z" id="Combined-Shape" stroke="#970E8A" fill="#970E8A"></path>
  </g>
</svg>
